Coordinates
version=1
nRows=8
nColumns=36
inDegrees=yes

Units are S.I. units (second, meters, Newtons, ...)
If the header above contains a line with 'inDegrees', this indicates whether rotational values are in degrees (yes) or radians (no).

endheader
time	pelvis_tilt	pelvis_list	pelvis_rotation	pelvis_tx	pelvis_ty	pelvis_tz	hip_flexion_r	hip_adduction_r	hip_rotation_r	knee_angle_r	knee_angle_r_beta	ankle_angle_r	subtalar_angle_r	mtp_angle_r	hip_flexion_l	hip_adduction_l	hip_rotation_l	knee_angle_l	knee_angle_l_beta	ankle_angle_l	subtalar_angle_l	mtp_angle_l	lumbar_extension	lumbar_bending	lumbar_rotation	arm_flex_r	arm_add_r	arm_rot_r	elbow_flex_r	pro_sup_r	arm_flex_l	arm_add_l	arm_rot_l	elbow_flex_l	pro_sup_l
      0.00000000	    -11.88107611	      0.98025129	     -5.97628388	      0.67995694	      1.23567237	      0.01503613	     11.75681592	      0.72767416	     -0.27303462	      0.53262558	      0.00929607	      3.00708550	     -4.94489466	     -6.25786974	     10.77613568	      0.24299037	     -0.90236711	      0.38866257	      0.00678344	      4.85670880	     -2.56410630	     -6.25786974	      0.84298947	     -0.36005287	      0.64676135	     -3.50075262	    -15.80880327	     10.70997673	     24.45824951	     84.17163774	     -6.90288875	    -19.46115360	     10.12037656	     34.95894073	     85.27455140
      0.01666670	    -12.59706106	      1.44198275	     -6.41496378	      0.67647440	      1.23433674	      0.01460134	     12.47500954	      0.57521987	     -1.90250372	      0.32395526	      0.00565409	      3.51732365	     -1.65845443	     -6.66959726	     12.07386762	      0.86159536	     -3.22252599	      0.24848147	      0.00433682	      4.06429623	     -1.92792091	     -6.66959726	      0.54139249	     -0.94697543	      1.11063686	     -2.83907549	    -15.27386070	     11.46610925	     22.68802938	     88.82961458	     -6.60058960	    -18.96585115	      9.29586189	     32.36402868	     89.49241343
      0.03333330	    -12.63567265	      1.30708661	     -5.52665597	      0.67475888	      1.23865764	      0.01275815	     12.50172406	      0.61997431	     -3.64891115	      0.29713345	      0.00518596	      3.31304580	     -0.43796531	     -6.97518202	     12.28956691	      0.88562027	     -3.80441294	      0.20292718	      0.00354175	      4.74963146	     -0.36705166	     -6.97518202	     -0.37669934	     -0.99554412	      1.07455678	     -3.23549467	    -15.16008462	      9.45771089	     22.25900907	     92.65265060	     -4.81935789	    -18.65204431	      8.16721875	     30.04019233	     94.57259654
      0.05000000	    -11.94136758	      1.30003020	     -5.43722828	      0.67169531	      1.23445676	      0.01203486	     11.85437982	      0.52765610	     -5.03140903	      0.32774091	      0.00572016	      3.20789359	      0.42469445	     -7.00680575	     11.75113308	      1.08550588	     -4.86803913	      0.19450793	      0.00339480	      5.69940969	      0.73541752	     -7.00680575	     -2.04647708	     -1.15791367	      1.00802400	     -3.19634326	    -15.32319886	      9.92385853	     22.26029029	     93.39081098	     -4.07107659	    -18.58839290	      7.66726463	     29.98186498	     95.20567333
      0.06666670	    -11.14340365	      1.30860197	     -5.45772264	      0.67028642	      1.23531081	      0.01119771	     11.17387930	      0.48896196	     -5.26838868	      0.35473444	      0.00619128	      3.45585962	      0.44905555	     -7.27078016	     10.98288951	      1.22130048	     -5.42225427	      0.19469807	      0.00339812	      6.20348592	      0.97209813	     -7.27078016	     -3.60058287	     -1.34992100	      0.89420543	     -2.91606467	    -15.50768028	     10.84620064	     22.18623764	     96.26727784	     -3.67389972	    -18.41950814	      5.98468949	     30.40147183	    100.03717127
      0.08333330	    -10.65375611	      1.34965190	     -5.69330084	      0.66937750	      1.23632381	      0.01091354	     10.82579498	      0.45198865	     -5.18216049	      0.39480588	      0.00689066	      3.69239738	      0.45436944	     -7.31960516	     10.60396836	      1.31283515	     -5.40471464	      0.18956273	      0.00330849	      6.90333017	      1.59720995	     -7.31960516	     -4.63427687	     -1.48562023	      1.05908844	     -2.74429118	    -15.67911670	     12.01426326	     22.05761577	     96.66388672	     -3.28021657	    -18.47936704	      6.42408210	     30.54626985	    100.57665807
      0.10000000	    -10.25652872	      1.34703029	     -5.67705667	      0.66943934	      1.23893845	      0.01046870	     10.43339184	      0.43309326	     -4.96222910	      0.42707807	      0.00745392	      3.87906539	      0.23512264	     -7.33961778	     10.22027973	      1.37775216	     -5.24399820	      0.18625791	      0.00325081	      7.03823017	      1.71772625	     -7.33961778	     -5.60268445	     -1.58404110	      1.04731500	     -2.85610865	    -15.70458234	     12.16934603	     22.68870458	     95.06763240	     -3.32478439	    -18.54909853	      6.35801493	     31.05698849	     98.77699101
      0.11666670	    -10.30310985	      1.45574142	     -5.69884680	      0.66896745	      1.23873341	      0.01060762	     10.55705316	      0.34259737	     -4.48332951	      0.43864311	      0.00765577	      4.05876423	      0.01450668	     -7.38350538	     10.29683017	      1.47694829	     -5.31323441	      0.18208719	      0.00317802	      7.37151582	      2.38686470	     -7.38350538	     -5.58046951	     -1.80541946	      0.84745116	     -2.03488351	    -15.60148041	     14.39572109	     21.07444663	     97.62234186	     -3.04006293	    -18.61962012	      6.79910608	     29.85871712	    101.91512143
